<svg width="800" height="600" xmlns="http://www.w3.org/2000/svg">
 <!-- Created with Method Draw - http://github.com/duopixel/Method-Draw/ -->

 <g>
  <title>background</title>
  <rect fill="none" id="canvas_background" height="602" width="802" y="-1" x="-1"/>
  <g display="none" overflow="visible" y="0" x="0" height="100%" width="100%" id="canvasGrid">
   <rect fill="url(#gridpattern)" stroke-width="0" y="0" x="0" height="100%" width="100%"/>
  </g>
 </g>
 <g>
  <title>Layer 1</title>
  <text font-style="italic" font-weight="normal" stroke="#000" transform="matrix(48.102895839770035,0,0,22.355247300032705,-7030.411130640088,-4941.83893948566) " xml:space="preserve" text-anchor="start" font-family="'Times New Roman', Times, serif" font-size="24" id="svg_1" y="242.57422" x="146.22417" stroke-width="0" fill="#ff0000">C</text>
  <!-- Created with Method Draw - http://github.com/duopixel/Method-Draw/ -->
  <g id="svg_14">
   <g transform="matrix(0.0625,0,0,0.0625,0,0) " id="svg_11">
    <title transform="translate(-3936,-2800) translate(6000,0) translate(0,4500) ">background</title>
    <rect x="2063" y="1699" width="802" height="602" id="svg_9" fill="none"/>
    <g id="svg_8" display="none">
     <rect id="svg_12" width="800" height="600" x="2064" y="1700" stroke-width="0" fill="url(#gridpattern)"/>
    </g>
   </g>
   <g transform="matrix(0.0625,0,0,0.0625,0,0) " id="svg_13">
    <title transform="translate(-3936,-2800) translate(6000,0) translate(0,4500) ">Layer 1</title>
    <text fill="#ffffff" stroke-width="0" x="372.29541" y="522.12022" id="svg_7" font-size="24" font-family="'Times New Roman', Times, serif" text-anchor="start" xml:space="preserve" transform="matrix(9.246712684631348,0,0,6.814815044403076,-1348.3375239372253,-1502.76626303792) " stroke="#000" font-weight="normal" font-style="italic">CLONE</text>
   </g>
  </g>
 </g>
</svg>