<?xml version="1.0" encoding="UTF-8" standalone="no" ?>
<!DOCTYPE svg PUBLIC "-//W3C//DTD SVG 1.1//EN" "http://www.w3.org/Graphics/SVG/1.1/DTD/svg11.dtd">
<svg xmlns="http://www.w3.org/2000/svg" xmlns:xlink="http://www.w3.org/1999/xlink" version="1.1" width="1080" height="1080" viewBox="0 0 1080 1080" xml:space="preserve">
<desc>Created with Fabric.js 4.2.0</desc>
<defs>
</defs>
<rect x="0" y="0" width="100%" height="100%" fill="transparent"></rect>
<g transform="matrix(1 0 0 1 540 540)" id="d63821f0-d159-40b1-bdbd-97048a0bfbce"  >
<rect style="stroke: none; stroke-width: 1; stroke-dasharray: none; stroke-linecap: butt; stroke-dashoffset: 0; stroke-linejoin: miter; stroke-miterlimit: 4; fill: rgb(255,255,255); fill-opacity: 0; fill-rule: nonzero; opacity: 1;" vector-effect="non-scaling-stroke"  x="-540" y="-540" rx="0" ry="0" width="1080" height="1080" />
</g>
<g transform="matrix(1 0 0 1 540 540)" id="0fd613ff-80b1-416b-8bac-4bd04862cff5"  >
</g>
<g transform="matrix(50.42 0 0 50.42 540 540)"  >
<g style="" vector-effect="non-scaling-stroke"   >
		<g transform="matrix(1 0 0 1 0 1.03)"  >
<path style="stroke: none; stroke-width: 1; stroke-dasharray: none; stroke-linecap: butt; stroke-dashoffset: 0; stroke-linejoin: miter; stroke-miterlimit: 4; fill: rgb(206,206,206); fill-rule: nonzero; opacity: 1;" vector-effect="non-scaling-stroke"  transform=" translate(-12, -12.53)" d="M 16.6 4.2 C 16.1 3.9000000000000004 15.500000000000002 4.1000000000000005 15.200000000000001 4.6000000000000005 C 14.9 5.1000000000000005 15.100000000000001 5.700000000000001 15.600000000000001 6 C 17.700000000000003 7.3 19.1 9.6 19.1 12 C 19.1 15.9 16 19 12.100000000000001 19 C 8.200000000000003 19 5.100000000000001 15.9 5.100000000000001 12 C 5.100000000000001 9.5 6.500000000000002 7.2 8.600000000000001 5.9 C 9 5.6 9.2 5 8.9 4.6 C 8.6 4.1 8 3.9 7.5 4.2 C 4.7 5.8 3 8.8 3 12 C 3 17 7 21 12 21 C 17 21 21 17 21 12 C 21 8.8 19.3 5.9 16.6 4.2 z" stroke-linecap="round" />
</g>
		<g transform="matrix(1 0 0 1 0 -4)"  >
<path style="stroke: none; stroke-width: 1; stroke-dasharray: none; stroke-linecap: butt; stroke-dashoffset: 0; stroke-linejoin: miter; stroke-miterlimit: 4; fill: rgb(206,206,206); fill-rule: nonzero; opacity: 1;" vector-effect="non-scaling-stroke"  transform=" translate(-12, -7.5)" d="M 12 13 C 12.6 13 13 12.6 13 12 L 13 3 C 13 2.4 12.6 2 12 2 C 11.4 2 11 2.4 11 3 L 11 12 C 11 12.6 11.4 13 12 13 z" stroke-linecap="round" />
</g>
</g>
</g>
</svg>